PathFileType	4	(X/Y/Z)	/Users/itak/Documents/Research/Walk-IL/dataset/trc/00259_00009.trc
DataRate	CameraRate	NumFrames	NumMarkers	Units	OrigDataRate	OrigDataStartFrame	OrigNumFrames
100.000000	100.000000	4	54	mm	100.000000	69	556
Frame#	Time	RPSI			LPSI			L3			STRN			T10			C7			CLAV			RBAK			LBAK			LSHO			LUPA			LAEL			LAOL			LWTS			LWPS			LFRA			LIFD			LHPS			LHTS			RSHO			RUPA			RAEL			RAOL			RWTS			RWPS			RFRA			RIFD			RHTS			RHPS			RBHD			LFHD			RFHD			LBHD			LHIP			RHIP			RASI			LASI			LKNE			LTHI			LANK			LTIP			LTOE			LMT1			LMT5			LHEE			RKNE			RTHI			RANK			RTIP			RTOE			RMT5			RMT1			RHEE			*53			
		X1	Y1	Z1	X2	Y2	Z2	X3	Y3	Z3	X4	Y4	Z4	X5	Y5	Z5	X6	Y6	Z6	X7	Y7	Z7	X8	Y8	Z8	X9	Y9	Z9	X10	Y10	Z10	X11	Y11	Z11	X12	Y12	Z12	X13	Y13	Z13	X14	Y14	Z14	X15	Y15	Z15	X16	Y16	Z16	X17	Y17	Z17	X18	Y18	Z18	X19	Y19	Z19	X20	Y20	Z20	X21	Y21	Z21	X22	Y22	Z22	X23	Y23	Z23	X24	Y24	Z24	X25	Y25	Z25	X26	Y26	Z26	X27	Y27	Z27	X28	Y28	Z28	X29	Y29	Z29	X30	Y30	Z30	X31	Y31	Z31	X32	Y32	Z32	X33	Y33	Z33	X34	Y34	Z34	X35	Y35	Z35	X36	Y36	Z36	X37	Y37	Z37	X38	Y38	Z38	X39	Y39	Z39	X40	Y40	Z40	X41	Y41	Z41	X42	Y42	Z42	X43	Y43	Z43	X44	Y44	Z44	X45	Y45	Z45	X46	Y46	Z46	X47	Y47	Z47	X48	Y48	Z48	X49	Y49	Z49	X50	Y50	Z50	X51	Y51	Z51	X52	Y52	Z52	X53	Y53	Z53	X54	Y54	Z54	

70	0.6900000000000001	-1446.112182617188	1055.790283203125	680.6853637695312	-1425.644287109375	1058.875122070312	561.9450073242188	-1435.884521484375	1133.953002929688	602.9927978515625	-1196.51806640625	1326.587158203125	634.718017578125	-1446.082153320312	1259.764282226562	606.1871948242188	-1389.968627929688	1522.486938476562	608.4699096679688	-1222.49462890625	1444.73486328125	632.6326904296875	-1469.98095703125	1382.892700195312	674.6049194335938	-1395.8515625	1484.962646484375	496.7252197265625	-1300.038208007812	1488.499633789062	452.8426208496094	-1320.6337890625	1370.452270507812	369.8802490234375	-1305.579833984375	1159.34765625	345.3889465332031	-1382.37890625	1144.259765625	385.0166015625	-1220.455078125	926.5260620117188	416.7280883789062	-1235.964111328125	908.6064453125	335.8260192871094	-1281.62890625	1051.822387695312	335.5773315429688	-1207.823852539062	732.19677734375	412.1265563964844	-1217.49072265625	820.6171264648438	344.1484985351562	-1181.090576171875	827.1697998046875	400.9607238769531	-1352.919921875	1488.816284179688	784.21826171875	-1378.994873046875	1425.59619140625	849.6031494140625	-1396.846801757812	1146.29248046875	899.1948852539062	-1419.485961914062	1137.49658203125	807.3377075195312	-1252.869750976562	932.6544189453125	870.5028076171875	-1308.825805664062	918.9976196289062	932.5881958007812	-1368.670776367188	1078.878173828125	915.699462890625	-1236.35498046875	740.3936767578125	867.4420776367188	-1211.176513671875	813.0711669921875	891.0049438476562	-1266.345458984375	812.7775268554688	938.4932250976562	-1368.359375	1672.061157226562	655.0894775390625	-1158.180908203125	1734.762329101562	596.7869873046875	-1176.470336914062	1735.593017578125	694.7518310546875	-1300.19091796875	1681.31884765625	532.6427001953125	-1306.43359375	991.3939208984375	439.6495971679688	-1366.324096679688	1015.100402832031	800.7998657226562	-1263.514526367188	1053.988037109375	779.418701171875	-1213.299072265625	1032.7705078125	501.2951965332031	-1298.979614257812	505.8782653808594	500.4656677246094	-1291.238525390625	648.743408203125	464.6908874511719	-1389.268920898438	39.04636383056641	520.5201416015625	-1351.260864257812	284.5223083496094	498.6444091796875	-1177.455688476562	46.72372436523438	593.2610473632812	-1250.067260742188	39.61415100097656	630.56396484375	-1258.207763671875	42.29520797729492	514.2260131835938	-1454.597900390625	42.10113143920898	568.54296875	-1342.2919921875	520.3806762695312	775.1949462890625	-1314.60205078125	788.9285888671875	819.0752563476562	-1420.74169921875	40.67790985107422	749.265625	-1340.223754882812	404.76123046875	761.5999145507812	-1203.354370117188	49.18605041503906	736.2208251953125	-1314.368408203125	43.11160278320312	790.4815673828125	-1253.1396484375	43.98505020141602	685.757568359375	-1474.864868164062	41.06560134887695	680.0400390625	nan	nan	nan	
71	0.7000000000000001	-1446.140380859375	1055.855712890625	680.4105224609375	-1425.6708984375	1058.901733398438	561.6825561523438	-1435.855834960938	1133.962524414062	602.7474365234375	-1196.471069335938	1326.592529296875	634.4805297851562	-1446.129516601562	1259.812377929688	605.8543090820312	-1389.926391601562	1522.50439453125	608.1414794921875	-1222.355224609375	1444.730834960938	632.3484497070312	-1469.947021484375	1382.912109375	674.1981201171875	-1395.82080078125	1485.0009765625	496.4288330078125	-1299.968627929688	1488.486450195312	452.5354919433594	-1320.43896484375	1370.45068359375	369.5644836425781	-1305.456665039062	1159.37158203125	345.0629272460938	-1382.2568359375	1144.253173828125	384.6515502929688	-1220.206298828125	926.5883178710938	416.5025939941406	-1235.694458007812	908.6531982421875	335.5407104492188	-1281.3759765625	1051.857666015625	335.2880249023438	-1207.540161132812	732.2467041015625	411.8529968261719	-1217.248413085938	820.6808471679688	343.8996887207031	-1180.7587890625	827.2005615234375	400.6629638671875	-1352.9658203125	1488.823364257812	783.868896484375	-1378.98876953125	1425.608276367188	849.2626953125	-1396.798950195312	1146.254516601562	898.8441162109375	-1419.43310546875	1137.48779296875	807.0723876953125	-1252.961303710938	932.6484985351562	870.224365234375	-1308.774047851562	918.9434814453125	932.2694091796875	-1368.727783203125	1078.919189453125	915.4178466796875	-1236.399291992188	740.3521118164062	867.192626953125	-1211.179077148438	813.1220092773438	890.7100219726562	-1266.34912109375	812.8168334960938	938.2698364257812	-1368.2998046875	1672.0830078125	654.7478637695312	-1158.122192382812	1734.723510742188	596.4215087890625	-1176.3876953125	1735.560546875	694.4024658203125	-1300.109130859375	1681.281005859375	532.2991333007812	-1306.401123046875	991.3770751953125	439.4219055175781	-1366.318725585938	1015.163024902344	800.5675048828125	-1263.626098632812	1054.040649414062	779.1791381835938	-1213.235595703125	1032.755249023438	501.1037902832031	-1298.96728515625	505.8705444335938	500.3516845703125	-1291.183837890625	648.7203369140625	464.5155334472656	-1389.27783203125	39.03090667724609	520.5108032226562	-1351.204467773438	284.4783020019531	498.5497131347656	-1177.46533203125	46.72326278686523	593.25927734375	-1250.070556640625	39.61540985107422	630.570068359375	-1258.20751953125	42.29499435424805	514.2281494140625	-1454.588134765625	42.08910369873047	568.5613403320312	-1342.275756835938	520.383056640625	775.0514526367188	-1314.73095703125	788.9952392578125	818.8920288085938	-1420.742309570312	40.67789077758789	749.26806640625	-1340.245971679688	404.7890625	761.4913940429688	-1203.355834960938	49.17924880981445	736.231689453125	-1314.369384765625	43.11241912841797	790.4808959960938	-1253.139038085938	43.98524475097656	685.7561645507812	-1474.848999023438	41.04220199584961	680.0588989257812	nan	nan	nan	
72	0.71	-1446.160888671875	1055.92138671875	680.1307373046875	-1425.710083007812	1058.921142578125	561.4110107421875	-1435.829345703125	1133.976440429688	602.4789428710938	-1196.366821289062	1326.603271484375	634.2314453125	-1446.1796875	1259.859985351562	605.50732421875	-1389.874755859375	1522.5224609375	607.8062133789062	-1222.228881835938	1444.714599609375	632.0713500976562	-1469.920654296875	1382.941772460938	673.7902221679688	-1395.777465820312	1485.038330078125	496.1241455078125	-1299.90087890625	1488.471313476562	452.2299194335938	-1320.257934570312	1370.447875976562	369.2529907226562	-1305.350219726562	1159.3935546875	344.72509765625	-1382.15283203125	1144.253051757812	384.28125	-1219.92578125	926.65771484375	416.2662048339844	-1235.388305664062	908.7024536132812	335.2418212890625	-1281.15087890625	1051.897827148438	334.9994506835938	-1207.258422851562	732.305908203125	411.586181640625	-1216.985595703125	820.7452392578125	343.6520690917969	-1180.39794921875	827.2481079101562	400.3707275390625	-1353.0048828125	1488.828369140625	783.5239868164062	-1379.011352539062	1425.62255859375	848.9395751953125	-1396.765991210938	1146.2216796875	898.5031127929688	-1419.401489257812	1137.501953125	806.7645263671875	-1253.05322265625	932.6475830078125	869.9332275390625	-1308.71435546875	918.8837890625	931.9529418945312	-1368.780151367188	1078.943969726562	915.1121826171875	-1236.423461914062	740.295654296875	866.970458984375	-1211.166748046875	813.1953735351562	890.3989868164062	-1266.36279296875	812.846435546875	938.0511474609375	-1368.239990234375	1672.103515625	654.4154663085938	-1158.0517578125	1734.692016601562	596.0580444335938	-1176.2998046875	1735.525756835938	694.0549926757812	-1300.019165039062	1681.245727539062	531.9472045898438	-1306.36669921875	991.3446044921875	439.1968383789062	-1366.347290039062	1015.219421386719	800.2977905273438	-1263.755249023438	1054.100463867188	778.9334716796875	-1213.189697265625	1032.73095703125	500.91162109375	-1298.95361328125	505.8651428222656	500.2393798828125	-1291.115966796875	648.6879272460938	464.3387145996094	-1389.287353515625	39.015380859375	520.5005493164062	-1351.150146484375	284.4298706054688	498.4499206542969	-1177.476318359375	46.72368621826172	593.2568359375	-1250.073974609375	39.61840438842773	630.5753784179688	-1258.206909179688	42.29426956176758	514.2298583984375	-1454.587646484375	42.08189392089844	568.5675659179688	-1342.262939453125	520.3857421875	774.9094848632812	-1314.838012695312	789.0706176757812	818.6904907226562	-1420.743408203125	40.6784553527832	749.2701416015625	-1340.262573242188	404.8070678710938	761.3775634765625	-1203.356811523438	49.17391967773438	736.239990234375	-1314.369995117188	43.11349487304688	790.4814453125	-1253.138916015625	43.98441314697266	685.754638671875	-1474.837524414062	41.0268440246582	680.0718383789062	nan	nan	nan	
73	0.72	-1446.172973632812	1055.985961914062	679.845458984375	-1425.759155273438	1058.930908203125	561.1200561523438	-1435.80859375	1133.997924804688	602.1737060546875	-1196.203735351562	1326.621948242188	633.9681396484375	-1446.22314453125	1259.901123046875	605.1424560546875	-1389.813720703125	1522.539672851562	607.4663696289062	-1222.124755859375	1444.690673828125	631.7986450195312	-1469.902099609375	1382.98046875	673.3922119140625	-1395.71728515625	1485.071533203125	495.8087768554688	-1299.831909179688	1488.455444335938	451.9252624511719	-1320.100463867188	1370.445556640625	368.9476928710938	-1305.250610351562	1159.412475585938	344.3757629394531	-1382.066040039062	1144.258666992188	383.9098205566406	-1219.620361328125	926.7305297851562	416.0177612304688	-1235.064086914062	908.75048828125	334.9405822753906	-1280.95947265625	1051.941284179688	334.7135314941406	-1206.97900390625	732.368896484375	411.3236999511719	-1216.70849609375	820.8087768554688	343.3988647460938	-1180.034057617188	827.3067016601562	400.0872192382812	-1353.031616210938	1488.832153320312	783.1884155273438	-1379.057739257812	1425.639770507812	848.635009765625	-1396.756225585938	1146.195678710938	898.174560546875	-1419.394775390625	1137.544555664062	806.4122314453125	-1253.142578125	932.650634765625	869.6168212890625	-1308.65478515625	918.82373046875	931.6353149414062	-1368.823608398438	1078.94970703125	914.780517578125	-1236.396240234375	740.2431030273438	866.7442016601562	-1211.140014648438	813.2816772460938	890.0762329101562	-1266.392211914062	812.8660278320312	937.8235473632812	-1368.177612304688	1672.12158203125	654.0899658203125	-1157.967529296875	1734.66650390625	595.6973266601562	-1176.203857421875	1735.490600585938	693.7100830078125	-1299.922241210938	1681.212768554688	531.5899658203125	-1306.32666015625	991.2996215820312	438.9662170410156	-1366.41748046875	1015.272155761719	799.9962768554688	-1263.895385742188	1054.160888671875	778.6795654296875	-1213.152954101562	1032.699462890625	500.7106323242188	-1298.93798828125	505.8600463867188	500.1264953613281	-1291.036865234375	648.6473999023438	464.1612854003906	-1389.2978515625	39.00053405761719	520.4891357421875	-1351.100463867188	284.3778991699219	498.3442993164062	-1177.488525390625	46.72568893432617	593.2540893554688	-1250.078369140625	39.62386322021484	630.578125	-1258.205688476562	42.29336929321289	514.2305908203125	-1454.59814453125	42.08049011230469	568.558837890625	-1342.25732421875	520.3892211914062	774.7698364257812	-1314.922729492188	789.1531372070312	818.4686889648438	-1420.744506835938	40.67919921875	749.2711181640625	-1340.271606445312	404.8150024414062	761.25830078125	-1203.355712890625	49.17301177978516	736.2430419921875	-1314.370239257812	43.11456298828125	790.48291015625	-1253.138793945312	43.98296737670898	685.7533569335938	-1474.82958984375	41.01839065551758	680.0785522460938	nan	nan	nan	
